<?xml version="1.0" standalone="no"?>
<!DOCTYPE svg PUBLIC "-//W3C//DTD SVG 20010904//EN"
 "http://www.w3.org/TR/2001/REC-SVG-20010904/DTD/svg10.dtd">
<svg version="1.0" xmlns="http://www.w3.org/2000/svg"
 width="700.000000pt" height="700.000000pt" viewBox="0 0 700.000000 700.000000"
 preserveAspectRatio="xMidYMid meet">
<metadata>
Created by potrace 1.11, written by Peter Selinger 2001-2013
</metadata>
<g transform="translate(0.000000,700.000000) scale(0.100000,-0.100000)"
fill="#000000" stroke="none">
<path d="M1386 6729 c-448 -44 -836 -324 -1016 -734 -58 -133 -88 -262 -101
-429 -7 -95 -9 -803 -6 -2171 3 -1870 5 -2037 20 -2114 62 -303 222 -567 452
-746 214 -166 421 -245 699 -266 95 -7 801 -9 2171 -6 2226 4 2077 0 2270 62
436 142 755 509 843 970 16 83 17 252 17 2205 0 1953 -1 2122 -17 2205 -50
263 -163 480 -348 666 -141 141 -300 240 -483 300 -206 67 -35 63 -2332 65
-1144 1 -2120 -2 -2169 -7z m2075 -1335 c21 -25 2 -112 -202 -921 -104 -413
-189 -754 -189 -758 0 -3 37 24 82 61 152 124 273 188 438 231 127 33 324 35
444 4 209 -55 339 -163 403 -337 20 -54 26 -95 31 -186 9 -211 -34 -398 -228
-978 -186 -558 -206 -654 -150 -722 26 -33 135 -32 200 1 147 76 266 252 355
523 21 62 43 119 50 127 18 18 141 19 174 2 21 -11 23 -18 17 -54 -11 -70 -72
-239 -119 -333 -76 -151 -208 -315 -314 -391 -97 -69 -185 -96 -314 -96 -124
0 -193 14 -272 56 -105 55 -193 186 -218 326 -11 65 -10 79 10 163 13 51 83
272 156 493 137 410 184 578 210 751 32 215 8 346 -80 422 -46 41 -70 47 -185
47 -211 -1 -398 -90 -571 -273 -78 -82 -185 -225 -222 -298 -9 -18 -95 -346
-192 -730 -96 -385 -185 -730 -196 -768 -37 -124 -130 -196 -251 -196 -61 0
-104 18 -145 61 -47 51 -53 75 -38 155 33 168 210 893 556 2276 126 505 229
933 229 952 0 54 -25 74 -105 86 -38 5 -111 10 -161 10 -118 0 -130 10 -121
104 3 36 15 83 26 105 25 47 -6 42 426 71 165 11 309 22 320 24 60 10 133 5
146 -10z"/>
</g>
</svg>
